# xmcd
#
# Track frame offsets: 
#        150
#        16890
#        29900
#        43287
#        57670
#        69707
#        83405
#        103532
#        122105
#        144595
#        161637
#        177037
#        192860
#        217460
#        234667
#
# Disc length: 3334 seconds
#
# Revision: 0
# Processed by: cddbd v1.5.2PL0 Copyright (c) Steve Scherf et al.
# Submitted via: ExactAudioCopy v0.95b4
#
DISCID=e10d040f
DTITLE=Eric Clapton - 1994-04-24 - Bring Me No More Blues
DYEAR=1994
DGENRE=Blues
TTITLE0=Motherless Child
TTITLE1=Malted Milk
TTITLE2=From Four Till Late
TTITLE3=How Long
TTITLE4=Kidman Blues
TTITLE5=I'm Gonna Cut Your Head
TTITLE6=44
TTITLE7=Blues Leave Me Alone
TTITLE8=Standin' Round Crying
TTITLE9=Hoochie Coochie Man
TTITLE10=It Hurts Me Too
TTITLE11=Blues Before Sunrise
TTITLE12=Third Degree
TTITLE13=Reconsider Baby
TTITLE14=Sinner's Prayer
EXTD=
EXTT0=
EXTT1=
EXTT2=
EXTT3=
EXTT4=
EXTT5=
EXTT6=
EXTT7=
EXTT8=
EXTT9=
EXTT10=
EXTT11=
EXTT12=
EXTT13=
EXTT14=
PLAYORDER=
